<svg width="100" height="100" fill="none" xmlns="http://www.w3.org/2000/svg"><path d="M99.768 54.639c.013-.065.022-.132.028-.2.13-1.464.195-2.958.195-4.44 0-13.355-5.2-25.91-14.644-35.355C75.904 5.201 63.35 0 49.995 0 36.641 0 24.086 5.2 14.643 14.645 5.2 24.088 0 36.645 0 50c0 10.179 3.04 19.974 8.792 28.327a1.95 1.95 0 002.716.5 1.953 1.953 0 00.5-2.716C6.709 68.413 3.907 59.384 3.907 50c0-2.971.286-5.876.825-8.691l.706 1.525a7.494 7.494 0 006.78 4.334h3.723l7.027 5.361c.34.26.756.4 1.184.4h3.19v1.704l-1.624 1.55a5.523 5.523 0 00-.942 6.842l4.077 6.88a5.533 5.533 0 003.178 2.486c.7.21 1.17.842 1.17 1.573v9.372c0 1.833.77 3.6 2.113 4.847.55.51.865 1.233.865 1.984v3.82a45.838 45.838 0 01-12.292-5.997 1.952 1.952 0 10-2.216 3.217C30.022 96.959 39.817 100 49.995 100c7.308 0 14.327-1.534 20.887-4.56l2.608 3.727a1.953 1.953 0 003.2 0l18.8-26.857a24.856 24.856 0 004.28-17.672zm-39.259-16.8a7.719 7.719 0 01-.156-8.012l4.436-7.603a3.347 3.347 0 012.881-1.654h2.86a3.32 3.32 0 013.096 2.092c.17.425.486.777.89.994l2.67 1.428a6.943 6.943 0 007.695-.75l2.14-1.752a45.855 45.855 0 018.681 21.47 25.048 25.048 0 00-3.004-3.63 24.736 24.736 0 00-17.607-7.294c-5.31 0-10.365 1.653-14.582 4.711zm24.053-18.292l-2.155 1.763a3.047 3.047 0 01-3.378.33l-2.097-1.122a7.204 7.204 0 00-6.401-3.854H67.67a7.265 7.265 0 00-6.254 3.592l-4.436 7.602c-2.308 3.956-2.037 8.873.538 12.53l-.034.034a24.85 24.85 0 00-7.19 15.246l-.032-.011c-.675-3.816-4.007-6.76-8.004-6.812a4.304 4.304 0 01-1.736-.387l-2.1-.955a8.19 8.19 0 00-9.072 1.52h-4.284l-5.74-6.882a3.79 3.79 0 01-.877-2.422 3.786 3.786 0 013.782-3.782c1.282 0 2.5.486 3.43 1.369l1.8 1.709a1.953 1.953 0 003.298-1.417V34.06l11.967-11.01a4.438 4.438 0 013.014-1.175c4.608 0 8.357-3.75 8.357-8.358V4.091c12.095 1.072 22.862 6.835 30.465 15.456zM8.982 41.193L6.287 35.37C12.416 17.103 29.693 3.906 49.995 3.906c.066 0 .13.002.196.003v9.608a4.456 4.456 0 01-4.452 4.452 8.335 8.335 0 00-5.657 2.206l-12.599 11.59c-.402.37-.63.892-.63 1.438v.122a8.85 8.85 0 00-4.623-1.294c-4.239 0-7.687 3.449-7.687 7.688 0 1.239.302 2.454.866 3.542h-3.192a3.576 3.576 0 01-3.235-2.068zm24.17 27.456a1.637 1.637 0 01-.94-.735l-4.077-6.88a1.635 1.635 0 01.28-2.025l2.228-2.128c.386-.369.604-.88.604-1.413v-2.745l.531-.598a4.308 4.308 0 015.029-1.066l2.1.954a8.185 8.185 0 003.3.738 4.347 4.347 0 014.273 4.33c0 .827.521 1.564 1.3 1.84l2.464.874a24.855 24.855 0 004.448 12.515l.516.737h-1.21a3.715 3.715 0 00-3.71 3.71v2.574c0 .575-.208 1.131-.587 1.565l-4.349 4.973-5.268 5.713v-1.415c0-1.833-.77-3.6-2.113-4.847a2.717 2.717 0 01-.865-1.984v-9.372a5.514 5.514 0 00-3.954-5.315zm16.843 27.444c-2.74 0-5.448-.24-8.103-.71l6.35-6.885.034-.039 4.365-4.993a6.282 6.282 0 001.553-4.136v-2.377h3.748L68.601 92.18c-5.86 2.595-12.107 3.913-18.606 3.913zM92.29 70.07L75.091 94.64 57.892 70.07a20.967 20.967 0 012.354-26.886 20.855 20.855 0 0114.845-6.15c5.607 0 10.88 2.184 14.845 6.15a20.967 20.967 0 012.353 26.886z" fill="#E77904"/><path d="M75.09 45.508c-6.904 0-12.52 5.617-12.52 12.522 0 6.904 5.616 12.522 12.52 12.522s12.521-5.618 12.521-12.522c0-6.905-5.617-12.522-12.52-12.522zm0 21.138c-4.75 0-8.615-3.865-8.615-8.616 0-4.751 3.865-8.616 8.615-8.616s8.615 3.865 8.615 8.616c0 4.75-3.864 8.616-8.615 8.616zM16.027 82.017a1.97 1.97 0 00-1.38.572 1.968 1.968 0 00-.573 1.381c0 .514.21 1.017.573 1.38.363.364.867.573 1.38.573.514 0 1.018-.209 1.38-.572.364-.364.573-.867.573-1.381s-.209-1.017-.572-1.38a1.967 1.967 0 00-1.38-.573z" fill="#E77904"/></svg>