<svg width="100" height="100" fill="none" xmlns="http://www.w3.org/2000/svg"><path d="M99.678 33.296a1.95 1.95 0 00-1.63-.88h-8.433a1.954 1.954 0 000 3.907h5.463L89.517 49.22a1.951 1.951 0 001.791 2.726c.756 0 1.477-.441 1.795-1.18l6.737-15.624a1.95 1.95 0 00-.162-1.847zm-17.167-.895a1.952 1.952 0 00-2.53 1.11l-6.096 15.624a1.954 1.954 0 003.64 1.42L83.62 34.93a1.952 1.952 0 00-1.11-2.529zM68.034 68.136a9.34 9.34 0 00-5.71-4.38 9.342 9.342 0 00-7.136.939l-7.952 4.592a1.614 1.614 0 01-2.213-.594L27.117 37.684a1.617 1.617 0 01.594-2.213l7.952-4.59c4.49-2.591 6.034-8.353 3.442-12.843L31.4 4.698c-2.593-4.489-8.353-6.032-12.844-3.44l-2.701 1.558C.707 11.562-4.502 31 4.243 46.145l6.58 11.396a1.954 1.954 0 003.384-1.953l-6.58-11.396c-6.275-10.869-4.355-24.255 3.828-32.964L24.24 33.374c-.49.6-.853 1.3-1.06 2.07a5.493 5.493 0 00.553 4.193L41.64 70.646a5.487 5.487 0 003.356 2.576c.77.205 1.559.242 2.324.115l12.71 22.015a27.653 27.653 0 01-13.579-.219c-7.177-1.922-13.175-6.525-16.89-12.958L22.996 70.81a1.953 1.953 0 10-3.383 1.953l6.563 11.365c4.237 7.337 11.078 12.585 19.262 14.778A31.893 31.893 0 0053.702 100c5.497 0 10.921-1.441 15.81-4.261l2.702-1.56a9.346 9.346 0 004.381-5.71 9.34 9.34 0 00-.94-7.132l-7.621-13.2zM14.4 8.517a28.129 28.129 0 013.41-2.318l2.7-1.559a5.501 5.501 0 017.507 2.01l7.704 13.341A5.501 5.501 0 0133.71 27.5l-6.26 3.613L14.4 8.517zM72.822 87.46a5.467 5.467 0 01-2.56 3.335l-2.702 1.56a28.32 28.32 0 01-3.711 1.796L50.88 71.693l6.26-3.615a5.463 5.463 0 014.171-.55 5.456 5.456 0 013.336 2.561l7.624 13.2a5.47 5.47 0 01.55 4.17zM59.433 47.012h5.716v2.982a1.954 1.954 0 003.906 0v-2.982h.004a1.954 1.954 0 000-3.906l-.004-7.787c0-1.365-.857-2.576-2.084-2.941-.953-.284-2.303-.08-3.235 1.345-.744 1.135-5.465 9.428-6 10.37a1.953 1.953 0 001.697 2.919zm5.716-8v4.094h-2.352c.806-1.409 1.639-2.86 2.352-4.094z" fill="#E77904"/><path d="M42.824 39.448a1.954 1.954 0 002.293-1.541 1.97 1.97 0 013.897.271 4.56 4.56 0 01-.334 1.166 10.566 10.566 0 01-1.016 1.746 3550.063 3550.063 0 01-5.448 7.775 1.952 1.952 0 001.594 3.082h7.81a1.953 1.953 0 100-3.906h-4.054l3.3-4.71a14.392 14.392 0 001.386-2.405 8.636 8.636 0 00.657-2.388 2.03 2.03 0 00.015-.246 5.882 5.882 0 00-5.875-5.875 5.884 5.884 0 00-5.765 4.738 1.952 1.952 0 001.54 2.293zM16.932 62.21c-.516 0-1.018.21-1.381.573a1.965 1.965 0 00-.572 1.381c0 .514.209 1.018.572 1.381a1.96 1.96 0 001.38.573c.515 0 1.019-.21 1.382-.573s.572-.867.572-1.38c0-.517-.209-1.019-.572-1.382a1.968 1.968 0 00-1.381-.572z" fill="#E77904"/></svg>