<svg width="99" height="70" fill="none" xmlns="http://www.w3.org/2000/svg"><path fill-rule="evenodd" clip-rule="evenodd" d="M50.557.879L34.684.287v1.479l19.602 1.578c2.244.493 2.013 2.53 4.521 2.53l1.353.165-3.234 3.451 8.35 10.156c1.155-2.17 8.118-4.404 11.484-4.404 22.11-.658 25.345 34.115.264 35.397 23.266 4.272 30.79-30.632 9.108-37.238l.627-.493c-4.158-1.742-6.996-2.202-11.055-1.019 1.683-2.86 3.201-2.202 1.155-4.042-3.762-3.353-13.63-6.048-18.315-6.048C56.1.156 53.098-.797 50.556.88zM0 21.782c.99-.033 13.365-5.883 15.774-6.836 4.225-1.742 12.21-4.864 17.755-4.864 3.102 0 6.798 5.258 14.421 5.258h.297c1.782 0 3.63-1.052 4.72-1.742 1.32.888 4.421 4.076 4.421 6.146l.067.296-.232 2.465 2.904 2.334 2.839-3.32c-.726-1.084-2.64-2.432-3.763-3.582-.957-1.02-2.178-3.123-3.003-4.339 0-13.804-29.535-4.93-37.39-1.807C14.917 13.302 1.75 19.383 0 21.782zm73.79 3.122c11.616-2.465 14.718 11.11 4.719 18.143 15.114-5.062 8.316-24.716-4.72-18.143z" fill="#F07C00"/><path fill-rule="evenodd" clip-rule="evenodd" d="M91.637 63.81l4.535 1.08c-.794 1.933-1.886 3.243-3.177 3.996C91.67 69.608 90.313 70 88.922 70c-2.053 0-3.74-.655-5.065-1.932-1.324-1.31-1.953-2.98-1.953-5.011 0-2.326.761-4.356 2.317-6.157 1.556-1.769 3.608-2.686 6.157-2.686 1.854 0 3.41.557 4.701 1.638 1.291 1.113 1.92 2.521 1.92 4.257l-5.098.59c0-1.605-.563-2.391-1.655-2.391-.927 0-1.59.655-2.02 1.965-.397 1.31-.595 2.456-.595 3.439 0 1.44.563 2.161 1.655 2.161s1.887-.687 2.35-2.063zm-26.946 5.764l7.415-14.836h4.502l3.807 14.836h-5.86l-1.72-8.09-3.973 8.09h-4.171zm-4.37-9.268c.067-.295.067-.524.067-.72a2.07 2.07 0 00-.497-1.376c-.331-.393-.794-.59-1.39-.59a2.4 2.4 0 00-1.722.72c-.53.492-.827 1.114-.96 1.966h4.502zm5.396 2.849H55.39c-.033.393-.066.688-.066.884 0 .655.198 1.147.629 1.507.43.36.96.557 1.589.557 1.225 0 2.085-.623 2.582-1.867l5.032.819c-.663 1.44-1.722 2.62-3.178 3.504-1.457.884-3.08 1.343-4.867 1.343-2.218 0-4.038-.623-5.429-1.9-1.39-1.244-2.085-2.98-2.085-5.142 0-2.358.828-4.388 2.45-6.059 1.655-1.703 3.773-2.522 6.455-2.522 2.25 0 4.038.655 5.362 1.965 1.325 1.31 1.987 3.046 1.987 5.208.033.524-.033 1.08-.133 1.703zm-27.74 6.42l1.92-11.3h-4.105l.596-3.602h13.87l-.629 3.602h-3.94l-1.92 11.3h-5.792zm-9.07-7.763l5.428.688c-.629 2.194-1.721 3.996-3.244 5.371-1.523 1.409-3.476 2.096-5.826 2.096-2.55 0-4.568-.851-6.058-2.554-1.49-1.703-2.251-3.898-2.251-6.583 0-3.079.927-5.83 2.78-8.22 1.854-2.392 4.403-3.57 7.614-3.57 2.35 0 4.27.72 5.727 2.128 1.457 1.441 2.218 3.308 2.218 5.666l-5.727.426c-.033-1.245-.198-2.162-.563-2.751-.364-.623-.993-.917-1.853-.917-1.49 0-2.516 1.113-3.079 3.308-.563 2.194-.828 3.93-.828 5.207 0 2.063.795 3.079 2.45 3.079.795 0 1.457-.262 1.953-.786.464-.525.894-1.409 1.258-2.588zM65.584 41.77c1.026 0 1.754-.754 2.118-2.293.365-1.54.563-2.784.563-3.832 0-1.572-.563-2.358-1.721-2.358-1.026 0-1.722.786-2.119 2.325-.397 1.572-.596 2.85-.596 3.832 0 1.572.596 2.326 1.755 2.326zm-.232 3.635c-2.085 0-3.84-.622-5.263-1.834-1.424-1.212-2.119-2.915-2.119-5.011 0-2.555.828-4.65 2.483-6.288 1.655-1.638 3.74-2.457 6.223-2.457 2.284 0 4.105.655 5.462 1.933 1.358 1.277 2.02 2.882 2.02 4.749 0 2.816-.861 5.01-2.616 6.583-1.72 1.539-3.806 2.325-6.19 2.325zm-19.034-.36l1.92-11.332h-4.105l.596-3.603H58.6l-.629 3.603h-3.94l-1.92 11.332H46.32zM34.665 41.77c1.026 0 1.755-.754 2.119-2.293.364-1.54.563-2.784.563-3.832 0-1.572-.563-2.358-1.722-2.358-1.026 0-1.721.786-2.118 2.325-.398 1.572-.596 2.85-.596 3.832 0 1.572.596 2.326 1.754 2.326zm-.231 3.635c-2.086 0-3.84-.622-5.264-1.834-1.423-1.212-2.119-2.915-2.119-5.011 0-2.555.828-4.65 2.483-6.288 1.655-1.638 3.74-2.457 6.224-2.457 2.284 0 4.104.655 5.462 1.933 1.357 1.277 2.019 2.882 2.019 4.749 0 2.816-.86 5.01-2.615 6.583-1.721 1.539-3.807 2.325-6.19 2.325zM26.654 25L23.28 45.044h-5.694l1.82-10.677c.2-1.081.43-2.227.729-3.44.232-.982.397-1.702.496-2.226-.132.295-.298.753-.53 1.375a96.385 96.385 0 01-1.323 3.276l-5.23 11.659H9.904l-1.39-11.66a32.85 32.85 0 01-.265-3.275c-.033-.687-.067-1.244-.133-1.604a104.128 104.128 0 01-.927 7.172l-1.589 9.4H1L4.377 25h8.143l1.092 8.876c.1.72.166 1.244.232 1.539.133-.459.331-.95.596-1.54L18.445 25h8.21z" fill="#1B1918"/></svg>